<svg width="181" height="338" viewBox="0 0 181 338" fill="none" xmlns="http://www.w3.org/2000/svg">
<path fill-rule="evenodd" clip-rule="evenodd" d="M86.709 157.979C86.709 157.979 61.6051 156.523 56.8388 159.277C52.0726 162.032 49.0466 165.771 49.0466 165.771C49.0466 165.771 42.8492 160.888 42.5531 157.979C42.257 155.069 36.0596 163.173 36.0596 163.173C36.0596 163.173 30.257 160.277 29.5661 157.979C28.8752 155.68 30.6505 148.275 28.2674 147.589C25.8843 146.903 17.6207 148.102 15.2804 150.186C12.9401 152.271 13.2272 137.838 11.3843 134.602C7.5908 127.94 0.490798 120.55 0.994694 111.225C1.70898 98.0149 10.5181 92.4058 11.3843 83.9526C12.2505 75.4993 2.32456 63.9565 11.3843 46.2902C20.444 28.624 35.6337 31.8084 39.9557 26.8097C44.2778 21.811 49.3064 8.79023 67.2285 3.43309C85.1505 -1.92405 103.47 0.0811421 111.384 8.6279C118.067 15.8448 122.156 20.8604 126.969 21.6149C131.782 22.3695 144.102 18.7721 154.241 26.8097C164.38 34.8474 159.048 46.8409 164.631 51.485C170.214 56.1292 177.287 54.7604 178.917 69.6669C180.547 84.5733 172.956 84.6539 178.917 95.6409C184.878 106.628 170.347 110.464 172.423 121.615C174.5 132.766 177.369 131.476 176.319 134.602C175.27 137.728 160.219 135.346 158.138 135.901C156.056 136.455 157.305 144.934 155.54 148.888C153.775 152.841 148.556 157.223 146.449 157.979C144.343 158.734 147.951 151.003 145.151 151.485C142.351 151.967 134.647 160.18 134.761 163.173C134.875 166.167 128.267 159.277 128.267 159.277C128.267 159.277 123.839 161.13 122.061 164.472C120.283 167.814 111.384 157.979 111.384 157.979H86.709Z" fill="#AF684A"/>
<path fill-rule="evenodd" clip-rule="evenodd" d="M57.6265 324.176C65.694 323.067 72.3811 325.362 72.3811 331.319C72.3811 337.276 65.7694 337.163 57.6265 337.163C49.4824 337.163 43.1563 335.978 43.1563 332.618C43.1563 329.258 48.1837 325.475 57.6265 324.176Z" fill="#F2F2F2"/>
<path fill-rule="evenodd" clip-rule="evenodd" d="M119.312 324.176C111.244 323.067 104.557 325.362 104.557 331.319C104.557 337.276 111.169 337.163 119.312 337.163C127.456 337.163 133.782 335.978 133.782 332.618C133.782 329.258 128.754 325.475 119.312 324.176Z" fill="#F2F2F2"/>
<path fill-rule="evenodd" clip-rule="evenodd" d="M43.2986 255.329H101.75C101.75 255.329 80.485 303.524 74.2323 317.69C73.1948 320.044 70.8649 321.563 68.2914 321.563C66.6791 321.563 64.8217 321.563 63.1282 321.563C60.0806 321.563 57.4438 319.443 56.7878 316.468C53.3635 300.952 43.2986 255.329 43.2986 255.329Z" fill="#4887B3"/>
<path fill-rule="evenodd" clip-rule="evenodd" d="M134.42 255.329H75.9684C75.9684 255.329 97.2333 303.524 103.486 317.69C104.524 320.044 106.853 321.563 109.427 321.563C111.039 321.563 112.897 321.563 114.59 321.563C117.638 321.563 120.275 319.443 120.931 316.468C124.355 300.952 134.42 255.329 134.42 255.329Z" fill="#4887B3"/>
<path fill-rule="evenodd" clip-rule="evenodd" d="M114.637 172.786C110.109 174.944 115.991 190.137 123.569 216.685C130.062 239.429 141.788 256.837 147.615 254.06C153.443 251.283 151.457 228.916 141.281 207.564C131.106 186.211 119.166 170.628 114.637 172.786Z" fill="#FFDAB3"/>
<path fill-rule="evenodd" clip-rule="evenodd" d="M145.028 257.258C139.9 257.758 138.657 265.472 137.24 271.066C136.075 275.662 139.583 281.276 146.003 280.651C151.131 280.151 155.49 273.315 155.21 268.01C154.88 261.756 151.448 256.633 145.028 257.258Z" fill="#FFDAB3"/>
<path fill-rule="evenodd" clip-rule="evenodd" d="M62.3012 172.786C66.8301 174.944 60.9481 190.137 53.3693 216.685C46.8769 239.429 35.1511 256.837 29.3232 254.06C23.4953 251.283 25.4819 228.916 35.6575 207.564C45.833 186.211 57.7723 170.628 62.3012 172.786Z" fill="#FFDAB3"/>
<path fill-rule="evenodd" clip-rule="evenodd" d="M31.9107 257.258C37.0384 257.758 38.2816 265.472 39.6989 271.066C40.8638 275.662 37.3558 281.276 30.9355 280.651C25.8079 280.151 21.4492 273.315 21.7288 268.01C22.0591 261.756 25.4905 256.633 31.9107 257.258Z" fill="#FFDAB3"/>
<path fill-rule="evenodd" clip-rule="evenodd" d="M134.075 255.704L43.1563 255.714L62.6471 171.288L88.6214 166.093L114.594 171.288L134.075 255.704Z" fill="#FFDAB3"/>
<path fill-rule="evenodd" clip-rule="evenodd" d="M101.162 161.65C101.162 158.066 98.2531 155.156 94.6687 155.156H81.6817C78.0972 155.156 75.1881 158.066 75.1881 161.65V187.624C75.1881 191.208 78.0972 194.118 81.6817 194.118H94.6687C98.2531 194.118 101.162 191.208 101.162 187.624V161.65Z" fill="#FFDAB3"/>
<path fill-rule="evenodd" clip-rule="evenodd" d="M156.601 80.5337C156.601 50.1428 131.927 25.4688 101.536 25.4688H74.0032C43.6123 25.4688 18.9383 50.1428 18.9383 80.5337V108.066C18.9383 138.457 43.6123 163.131 74.0032 163.131H101.536C131.927 163.131 156.601 138.457 156.601 108.066V80.5337Z" fill="#FFDAB3"/>
<path fill-rule="evenodd" clip-rule="evenodd" d="M32.8963 103.654C32.1542 100.884 29.3038 99.2387 26.534 99.9809L16.4984 102.67C13.7286 103.412 12.5659 105.516 11.5263 109.032C10.7763 111.567 10.094 115.95 11.2861 120.334C12.3929 124.404 14.9725 128.352 17.2405 130.358C19.0747 131.98 22.1318 134.773 24.9016 134.031L34.9372 131.342C37.707 130.6 39.3527 127.75 38.6105 124.98L32.8963 103.654Z" fill="#FFDAB3"/>
<path fill-rule="evenodd" clip-rule="evenodd" d="M144.042 103.654C144.784 100.884 147.634 99.2387 150.404 99.9809L160.44 102.67C163.209 103.412 164.372 105.516 165.412 109.032C166.162 111.567 166.844 115.95 165.652 120.334C164.545 124.404 161.966 128.352 159.698 130.358C157.863 131.98 154.806 134.773 152.036 134.031L142.001 131.342C139.231 130.6 137.585 127.75 138.328 124.98L144.042 103.654Z" fill="#FFDAB3"/>
<path fill-rule="evenodd" clip-rule="evenodd" d="M80.0089 136.047C79.7762 135.961 79.5162 136.007 79.3289 136.169C79.1416 136.331 79.058 136.581 79.1089 136.823C80.0416 139.261 83.6798 141.094 88.0234 141.094C92.3671 141.094 96.0052 139.261 96.9016 136.816C96.9489 136.587 96.8689 136.35 96.6925 136.198C96.5162 136.045 96.2707 136.001 96.0507 136.081C93.9452 136.754 91.0853 137.276 88.0234 137.276C84.9616 137.276 82.1016 136.754 80.0089 136.047Z" fill="#562E32"/>
<path d="M61.3686 127.519C64.9549 127.519 67.8621 124.612 67.8621 121.025C67.8621 117.439 64.9549 114.532 61.3686 114.532C57.7823 114.532 54.8751 117.439 54.8751 121.025C54.8751 124.612 57.7823 127.519 61.3686 127.519Z" fill="#562E32"/>
<path fill-rule="evenodd" clip-rule="evenodd" d="M63.9515 95.3604C67.8022 91.3098 61.3203 90.4942 56.1593 91.4643C50.1788 92.589 43.4528 95.2293 43.1723 96.6591C42.8918 98.089 46.2879 95.4163 54.8606 95.3604C59.5372 95.3293 63.1216 96.2332 63.9515 95.3604Z" fill="#562E32"/>
<path d="M115.569 127.519C111.983 127.519 109.076 124.612 109.076 121.025C109.076 117.439 111.983 114.532 115.569 114.532C119.156 114.532 122.063 117.439 122.063 121.025C122.063 124.612 119.156 127.519 115.569 127.519Z" fill="#562E32"/>
<path fill-rule="evenodd" clip-rule="evenodd" d="M112.987 95.3604C109.136 91.3098 115.618 90.4942 120.779 91.4643C126.759 92.589 133.485 95.2293 133.766 96.6591C134.046 98.089 130.65 95.4163 122.077 95.3604C117.401 95.3293 113.816 96.2332 112.987 95.3604Z" fill="#562E32"/>
<path fill-rule="evenodd" clip-rule="evenodd" d="M136.496 260.645L122.713 207.808L138.61 201.021C138.61 201.021 129.57 183.544 121.967 175.613C118.661 172.165 114.418 171.035 114.418 171.035L101.431 168.437L88.1492 177.528L74.8674 168.437L61.8804 171.035C61.8804 171.035 57.6375 172.165 54.3323 175.613C46.7284 183.544 37.6882 201.021 37.6882 201.021L53.5869 207.808L39.8024 260.645C39.8024 260.645 56.4492 263.243 88.1492 263.243C119.849 263.243 136.496 260.645 136.496 260.645Z" fill="#AEBE8F"/>
<path fill-rule="evenodd" clip-rule="evenodd" d="M122.581 207.724L138.478 200.937C138.478 200.937 137.754 199.535 136.539 197.344L121.282 203.828L122.581 207.724Z" fill="#8B9C73"/>
<path fill-rule="evenodd" clip-rule="evenodd" d="M39.6271 197.344C38.4141 199.535 37.6882 200.937 37.6882 200.937L53.5869 207.724L54.709 204.074L39.6271 197.344Z" fill="#8B9C73"/>
<path fill-rule="evenodd" clip-rule="evenodd" d="M41.3862 255.157L40.0316 260.351C40.0316 260.351 56.6784 262.949 88.3784 262.949C120.078 262.949 136.725 260.351 136.725 260.351L135.371 255.157C135.371 255.157 126.12 257.754 88.3784 257.754C50.6368 257.754 41.3862 255.157 41.3862 255.157Z" fill="#8B9C73"/>
<path fill-rule="evenodd" clip-rule="evenodd" d="M116.97 197.063L100.188 198.907L101.604 211.802C101.84 213.949 103.771 215.498 105.918 215.262L114.926 214.273C117.073 214.037 118.622 212.105 118.386 209.959L116.97 197.063Z" fill="#8B9C73"/>
<path fill-rule="evenodd" clip-rule="evenodd" d="M157.873 101.946C157.873 101.946 152.342 102.017 150.081 104.543C147.82 107.069 146.185 112.335 146.185 112.335C146.185 112.335 145.673 90.1482 126.704 83.7638C107.735 77.3794 111.12 59.0885 111.12 59.0885C111.12 59.0885 103.516 77.3599 78.6523 66.8807C53.7887 56.4015 44.0874 75.2976 44.8861 82.4651C45.6848 89.6326 39.0588 98.0132 33.1978 99.6781C27.3367 101.343 29.3016 112.335 29.3016 112.335C29.3016 112.335 26.9925 106.516 24.4016 104.543C21.8107 102.57 17.6133 101.946 17.6133 101.946C17.6133 101.946 10.2185 66.8521 25.4055 44.8028C40.5926 22.7534 68.751 19.2184 87.7432 20.1275C106.735 21.0365 127.694 17.7742 147.484 42.2054C167.273 66.6365 157.873 101.946 157.873 101.946Z" fill="#AF684A"/>
</svg>
