<svg width="178" height="323" viewBox="0 0 178 323" fill="none" xmlns="http://www.w3.org/2000/svg">
<path fill-rule="evenodd" clip-rule="evenodd" d="M30.3183 145.858L11.5001 108.195L26.4222 58.8448L89.2104 35.4681L153.695 66.637L156.292 144.559C156.292 144.559 145.749 130.273 89.2104 130.273C32.6715 130.273 30.3183 145.858 30.3183 145.858Z" fill="#EB6C7D"/>
<path fill-rule="evenodd" clip-rule="evenodd" d="M58.7821 309.176C66.8496 308.067 73.5366 310.362 73.5366 316.319C73.5366 322.276 66.9249 322.163 58.7821 322.163C50.6379 322.163 44.3119 320.977 44.3119 317.618C44.3119 314.258 49.3392 310.475 58.7821 309.176Z" fill="#F2F2F2"/>
<path fill-rule="evenodd" clip-rule="evenodd" d="M120.467 309.176C112.4 308.067 105.713 310.362 105.713 316.319C105.713 322.276 112.324 322.163 120.467 322.163C128.611 322.163 134.937 320.977 134.937 317.618C134.937 314.258 129.91 310.475 120.467 309.176Z" fill="#F2F2F2"/>
<path fill-rule="evenodd" clip-rule="evenodd" d="M44.4541 240.329H102.905C102.905 240.329 81.6405 288.523 75.3879 302.69C74.3503 305.044 72.0204 306.562 69.4469 306.562C67.8347 306.562 65.9772 306.562 64.2837 306.562C61.2362 306.562 58.5993 304.443 57.9433 301.468C54.5191 285.952 44.4541 240.329 44.4541 240.329Z" fill="#D7B194"/>
<path fill-rule="evenodd" clip-rule="evenodd" d="M135.575 240.329H77.124C77.124 240.329 98.3889 288.523 104.642 302.69C105.679 305.044 108.009 306.562 110.582 306.562C112.195 306.562 114.052 306.562 115.746 306.562C118.793 306.562 121.43 304.443 122.086 301.468C125.51 285.952 135.575 240.329 135.575 240.329Z" fill="#D7B194"/>
<path fill-rule="evenodd" clip-rule="evenodd" d="M115.793 156.786C111.264 158.944 117.146 174.137 124.725 200.684C131.217 223.428 142.943 240.837 148.771 238.06C154.599 235.282 152.612 212.916 142.436 191.563C132.261 170.211 120.322 154.627 115.793 156.786Z" fill="#D7B194"/>
<path fill-rule="evenodd" clip-rule="evenodd" d="M146.183 241.258C141.056 241.758 139.812 249.472 138.395 255.066C137.23 259.662 140.738 265.276 147.158 264.65C152.286 264.151 156.645 257.315 156.365 252.009C156.035 245.756 152.603 240.632 146.183 241.258Z" fill="#D7B194"/>
<path fill-rule="evenodd" clip-rule="evenodd" d="M63.4564 156.786C67.9853 158.944 62.1033 174.137 54.5246 200.684C48.0321 223.428 36.3064 240.837 30.4785 238.06C24.6505 235.282 26.6371 212.916 36.8127 191.563C46.9883 170.211 58.9275 154.627 63.4564 156.786Z" fill="#D7B194"/>
<path fill-rule="evenodd" clip-rule="evenodd" d="M33.0659 241.258C38.1936 241.758 39.4368 249.472 40.8541 255.066C42.019 259.662 38.511 265.276 32.0908 264.65C26.9631 264.151 22.6044 257.315 22.884 252.009C23.2143 245.756 26.6457 240.632 33.0659 241.258Z" fill="#D7B194"/>
<path fill-rule="evenodd" clip-rule="evenodd" d="M135.23 240.704L44.3119 240.714L63.8026 156.288L89.7769 151.093L115.75 156.288L135.23 240.704Z" fill="#D7B194"/>
<path fill-rule="evenodd" clip-rule="evenodd" d="M103.098 146.65C103.098 143.065 100.189 140.156 96.6045 140.156H83.6175C80.0331 140.156 77.124 143.065 77.124 146.65V172.624C77.124 176.208 80.0331 179.117 83.6175 179.117H96.6045C100.189 179.117 103.098 176.208 103.098 172.624V146.65Z" fill="#D7B194"/>
<path fill-rule="evenodd" clip-rule="evenodd" d="M158.536 65.5335C158.536 35.1426 133.862 10.4686 103.471 10.4686H75.9391C45.5482 10.4686 20.8741 35.1426 20.8741 65.5335V93.066C20.8741 123.457 45.5482 148.131 75.9391 148.131H103.471C133.862 148.131 158.536 123.457 158.536 93.066V65.5335Z" fill="#D7B194"/>
<path fill-rule="evenodd" clip-rule="evenodd" d="M145.197 88.654C145.939 85.8841 148.79 84.2385 151.56 84.9807L161.595 87.6697C164.365 88.4119 165.528 90.5156 166.567 94.0318C167.317 96.5668 168 100.95 166.808 105.334C165.701 109.404 163.121 113.351 160.853 115.357C159.019 116.98 155.962 119.773 153.192 119.031L143.156 116.342C140.387 115.6 138.741 112.749 139.483 109.98L145.197 88.654Z" fill="#D7B194"/>
<path fill-rule="evenodd" clip-rule="evenodd" d="M81.1644 121.047C80.9317 120.961 80.6717 121.007 80.4844 121.168C80.2972 121.33 80.2135 121.581 80.2644 121.823C81.1971 124.261 84.8353 126.094 89.179 126.094C93.5226 126.094 97.1608 124.261 98.0572 121.816C98.1044 121.587 98.0244 121.35 97.8481 121.198C97.6717 121.045 97.4262 121.001 97.2062 121.081C95.1008 121.754 92.2408 122.276 89.179 122.276C86.1172 122.276 83.2571 121.754 81.1644 121.047Z" fill="#562E32"/>
<path d="M62.5241 112.519C66.1104 112.519 69.0177 109.612 69.0177 106.025C69.0177 102.439 66.1104 99.5317 62.5241 99.5317C58.9379 99.5317 56.0306 102.439 56.0306 106.025C56.0306 109.612 58.9379 112.519 62.5241 112.519Z" fill="#562E32"/>
<path fill-rule="evenodd" clip-rule="evenodd" d="M65.1071 80.3602C68.9577 76.3095 62.4759 75.4939 57.3149 76.4641C51.3343 77.5887 44.6084 80.229 44.3279 81.6589C44.0473 83.0888 47.4434 80.416 56.0162 80.3602C60.6928 80.329 64.2772 81.2329 65.1071 80.3602Z" fill="#562E32"/>
<path d="M116.725 112.519C113.139 112.519 110.232 109.612 110.232 106.025C110.232 102.439 113.139 99.5317 116.725 99.5317C120.311 99.5317 123.219 102.439 123.219 106.025C123.219 109.612 120.311 112.519 116.725 112.519Z" fill="#562E32"/>
<path fill-rule="evenodd" clip-rule="evenodd" d="M114.142 80.3602C110.291 76.3095 116.773 75.4939 121.934 76.4641C127.915 77.5887 134.641 80.229 134.921 81.6589C135.202 83.0888 131.806 80.416 123.233 80.3602C118.556 80.329 114.972 81.2329 114.142 80.3602Z" fill="#562E32"/>
<path fill-rule="evenodd" clip-rule="evenodd" d="M116.968 99.6716C116.968 101.751 118.713 103.438 120.864 103.438C123.015 103.438 124.76 101.751 124.76 99.6716C123.851 100.295 122.418 100.801 120.864 100.801C119.31 100.801 117.876 100.295 116.968 99.6716Z" fill="#562E32"/>
<path fill-rule="evenodd" clip-rule="evenodd" d="M62.2806 99.6716C62.2806 101.751 60.5351 103.438 58.3845 103.438C56.2338 103.438 54.4884 101.751 54.4884 99.6716C55.3969 100.295 56.8307 100.801 58.3845 100.801C59.9382 100.801 61.372 100.295 62.2806 99.6716Z" fill="#562E32"/>
<path fill-rule="evenodd" clip-rule="evenodd" d="M44.3119 244.062L51.8184 280.426L84.2859 283.024L89.7755 271.335L95.2651 283.024L127.733 280.426L135.24 244.062H44.3119Z" fill="#9BB0CF"/>
<path fill-rule="evenodd" clip-rule="evenodd" d="M137.881 245.645L122.296 185.905L115.803 156.035L102.816 153.437L89.5339 162.528L76.2521 153.437L63.2651 156.035L56.7716 185.905L41.1872 245.645C41.1872 245.645 59.1313 248.242 89.5288 248.242C119.93 248.242 137.881 245.645 137.881 245.645Z" fill="#D5C6ED"/>
<path fill-rule="evenodd" clip-rule="evenodd" d="M86.4147 5.50765C84.7173 5.64921 99.3095 0.359596 111.09 0.312842C122.871 0.266089 162.517 19.5739 164.337 49.6635C166.156 79.7531 165.547 91.318 174.726 110.702C181.058 124.073 175.776 136.383 173.428 139.274C165.889 148.554 142.055 156.806 139.025 154.858C135.995 152.91 146.385 143.032 146.155 127.586C145.904 110.773 141.598 105.425 140.96 93.8193C140.322 82.2141 139.661 80.8323 139.661 80.8323C139.661 80.8323 130.929 82.6765 121.48 83.4297C112.03 84.183 106.363 83.5362 105.895 82.131C105.428 80.7258 104.706 76.6077 104.596 69.144C104.487 61.6804 105.895 50.9622 105.895 50.9622C105.895 50.9622 101.989 60.2167 100.7 66.5466C99.4121 72.8765 99.203 80.4648 98.103 82.131C97.003 83.7973 83.1614 85.0518 66.9342 85.0583C50.7069 85.0635 42.2588 82.131 42.2588 82.131C42.2588 82.131 39.1575 89.318 34.4666 92.5206C29.7757 95.7232 25.8263 95.118 25.8263 95.118L21.4796 87.3258C21.4796 87.3258 25.3536 115.101 30.5705 127.586C35.7874 140.07 39.803 150.873 38.6017 152.261C37.4017 153.649 25.203 151.827 16.2848 147.066C7.03156 142.126 2.67572 135.238 1.99909 132.78C1.32247 130.323 -2.45415 114.006 5.8952 92.5206C13.3744 73.2726 19.9186 54.3752 21.4796 40.5726C24.2004 16.5258 52.1536 0.177777 64.3368 0.312842C77.9264 0.463492 88.1121 5.36609 86.4147 5.50765Z" fill="url(#paint0_linear_148_367)"/>
<path fill-rule="evenodd" clip-rule="evenodd" d="M39.7661 109.98L25.0706 100.531C25.0706 100.531 23.8516 91.2903 22.288 89.3738C20.4143 87.0779 17.654 87.6697 17.654 87.6697C14.8841 88.4119 13.7215 90.5156 12.6818 94.0318C11.9319 96.5668 11.2496 100.95 12.4417 105.334C13.5485 109.404 16.1281 113.351 18.396 115.357C20.2303 116.98 23.2874 119.773 26.0572 119.031L36.0928 116.342C38.8626 115.6 40.5082 112.749 39.7661 109.98Z" fill="#D7B194"/>
<defs>
<linearGradient id="paint0_linear_148_367" x1="91.6095" y1="152.261" x2="91.6095" y2="50.9622" gradientUnits="userSpaceOnUse">
<stop stop-color="#EB6C7D"/>
<stop offset="0.05" stop-color="#EB6C7D"/>
<stop offset="0.09" stop-color="#EB6C7D"/>
<stop offset="0.27" stop-color="#ED9888"/>
<stop offset="0.47" stop-color="#F0C493"/>
<stop offset="1" stop-color="#F1D898"/>
</linearGradient>
</defs>
</svg>
