<svg width="17" height="15" viewBox="0 0 17 15" fill="none" xmlns="http://www.w3.org/2000/svg">
<path fill-rule="evenodd" clip-rule="evenodd" d="M13.9672 0.355344C14.4951 0.574054 14.9746 0.894617 15.3786 1.29872C15.7827 1.70264 16.1032 2.18221 16.3219 2.71005C16.5406 3.23788 16.6532 3.80364 16.6532 4.375C16.6532 4.94635 16.5406 5.51211 16.3219 6.03995C16.1032 6.56778 15.7827 7.04736 15.3786 7.45127L14.5403 8.28954L8.38774 14.4421L2.23519 8.28954L1.39692 7.45127C0.581044 6.63539 0.122688 5.52882 0.122688 4.375C0.122688 3.22117 0.581044 2.1146 1.39692 1.29872C2.2128 0.482842 3.31937 0.024486 4.4732 0.024486C5.62703 0.024486 6.73359 0.482842 7.54947 1.29872L8.38774 2.13699L9.22601 1.29872C9.62992 0.894617 10.1095 0.574054 10.6373 0.355344C11.1652 0.136634 11.7309 0.0240631 12.3023 0.0240631C12.8736 0.0240631 13.4394 0.136634 13.9672 0.355344Z" fill="#EF4565"/>
</svg>
