<svg width="80" height="80" viewBox="0 0 80 80" fill="none" xmlns="http://www.w3.org/2000/svg">
<path fill-rule="evenodd" clip-rule="evenodd" d="M80 20.0002C80 8.96176 71.0382 0 59.9998 0H20.0002C8.96176 0 0 8.96176 0 20.0002V59.9998C0 71.0382 8.96176 80 20.0002 80H59.9998C71.0382 80 80 71.0382 80 59.9998V20.0002Z" fill="#873DEC"/>
<path d="M19.3181 17.409C19.3181 17.697 19.0713 18.273 18.6599 19.2193C18.2073 20.1656 17.837 20.9062 17.6313 21.441C16.7261 23.5805 16.0679 25.5142 15.6976 27.2833C15.3273 29.0524 15.1216 30.9039 15.1216 32.7964C15.1216 34.5244 15.2861 36.2524 15.6153 37.8981C15.9033 39.5027 16.397 41.1484 17.0553 42.7941C17.3844 43.6581 17.8781 44.7278 18.4541 45.921C19.0301 47.1141 19.3181 47.8547 19.3181 48.1427C19.3181 48.4307 19.2358 48.6775 19.1124 48.8421C18.989 49.0067 18.8244 49.0889 18.6187 49.0889C18.2073 49.0889 17.7547 48.8832 17.2199 48.4307C16.7261 47.9781 16.109 47.2787 15.4507 46.3324C14.0107 44.2752 12.941 42.1358 12.2416 39.873C11.5422 37.6101 11.1719 35.265 11.1719 32.7964C11.1719 30.5336 11.4599 28.353 12.0359 26.2959C12.653 24.2387 13.517 22.2639 14.7101 20.3302C15.4919 19.0548 16.1913 18.1085 16.8496 17.4502C17.5079 16.833 18.0839 16.5039 18.6187 16.5039C18.8244 16.5039 18.989 16.5862 19.1124 16.7508C19.2358 16.9153 19.3181 17.121 19.3181 17.409Z" fill="white"/>
<path d="M60.5564 48.1427C60.5564 47.8547 60.8033 47.2787 61.2558 46.3735C61.7084 45.4272 62.0375 44.7278 62.2844 44.1518C63.1895 42.0124 63.8478 40.0375 64.2181 38.2684C64.6295 36.4993 64.7941 34.689 64.7941 32.7964C64.7941 31.0684 64.6295 29.3816 64.3004 27.7359C63.9712 26.0902 63.4775 24.4445 62.8192 22.7576C62.449 21.8936 61.9964 20.8239 61.4204 19.6308C60.8444 18.4376 60.5564 17.697 60.5564 17.409C60.5564 17.121 60.6387 16.9153 60.7621 16.7508C60.8855 16.5862 61.0913 16.5039 61.297 16.5039C61.7495 16.5039 62.2021 16.7096 62.6958 17.1622C63.1895 17.5736 63.8067 18.273 64.465 19.2193C65.9049 21.2765 66.9747 23.4159 67.6741 25.6787C68.3735 27.9416 68.7438 30.3279 68.7438 32.7964C68.7438 35.0593 68.4558 37.1987 67.8387 39.297C67.2627 41.3541 66.3575 43.329 65.1644 45.2627C64.3415 46.5792 63.601 47.5255 62.9838 48.1427C62.3667 48.7598 61.7907 49.0889 61.297 49.0889C61.0913 49.0889 60.8855 49.0067 60.7621 48.8009C60.6387 48.6364 60.5564 48.4307 60.5564 48.1427Z" fill="white"/>
<path d="M27.9938 38.4682C29.5718 38.4682 30.851 37.189 30.851 35.611C30.851 34.0331 29.5718 32.7539 27.9938 32.7539C26.4159 32.7539 25.1367 34.0331 25.1367 35.611C25.1367 37.189 26.4159 38.4682 27.9938 38.4682Z" fill="white"/>
<path d="M51.9864 38.4682C50.4084 38.4682 49.1292 37.189 49.1292 35.611C49.1292 34.0331 50.4084 32.7539 51.9864 32.7539C53.5643 32.7539 54.8435 34.0331 54.8435 35.611C54.8435 37.189 53.5643 38.4682 51.9864 38.4682Z" fill="white"/>
<path d="M11.7769 60.4656V56.9134H11.6989C11.5232 56.9134 11.3963 56.8646 11.3085 56.7767C11.2207 56.6889 11.1719 56.562 11.1719 56.3864C11.1719 56.2009 11.2207 56.0643 11.3183 55.9862C11.4159 55.8984 11.5622 55.8594 11.7769 55.8594H12.9578C13.6214 55.8594 14.1093 55.8887 14.4119 55.9472C14.7242 56.0058 14.9877 56.0936 15.2024 56.2302C15.583 56.4547 15.8757 56.7865 16.0807 57.2061C16.2856 57.6355 16.393 58.1235 16.393 58.6797C16.393 59.2653 16.2759 59.7825 16.0416 60.2217C15.8074 60.6608 15.4756 60.9926 15.0462 61.2171C14.851 61.3244 14.6266 61.3928 14.3631 61.4416C14.1093 61.4903 13.719 61.5099 13.2018 61.5099H11.7769C11.5622 61.5099 11.4061 61.4708 11.3085 61.3928C11.2207 61.3049 11.1719 61.1683 11.1719 60.9829C11.1719 60.817 11.2207 60.6803 11.3085 60.5925C11.3963 60.5144 11.5232 60.4656 11.6989 60.4656H11.7769ZM13.0066 56.8938V60.4656H13.2798C13.8849 60.4656 14.324 60.3193 14.6071 60.0265C14.8998 59.7337 15.0365 59.275 15.0365 58.67C15.0365 58.0649 14.8901 57.6258 14.6071 57.3232C14.3143 57.0305 13.8751 56.8841 13.2896 56.8841C13.2115 56.8841 13.153 56.8841 13.1139 56.8841C13.0749 56.8841 13.0359 56.8938 13.0066 56.8938Z" fill="white"/>
<path d="M21.6377 60.359H21.7158C21.8817 60.359 22.0183 60.4078 22.1061 60.4956C22.194 60.5834 22.2428 60.7201 22.2428 60.886C22.2428 61.0714 22.194 61.1982 22.1061 61.2861C22.0085 61.3642 21.8524 61.4032 21.6377 61.4032H21.1888C21.0326 61.4032 20.9155 61.3739 20.8374 61.3154C20.7594 61.2568 20.6911 61.1397 20.6423 60.9836C20.3788 61.1592 20.0958 61.2958 19.803 61.3837C19.5102 61.4715 19.2077 61.5203 18.9051 61.5203C18.3977 61.5203 17.9976 61.3934 17.7048 61.1397C17.412 60.886 17.2656 60.5346 17.2656 60.0955C17.2656 59.6173 17.451 59.2464 17.8317 58.983C18.2123 58.7195 18.7392 58.5926 19.4224 58.5926C19.5785 58.5926 19.7347 58.6023 19.9103 58.6121C20.0762 58.6316 20.2714 58.6609 20.4861 58.6902V58.6023C20.4861 58.3193 20.4178 58.0949 20.2812 57.9485C20.1348 57.8021 19.9396 57.724 19.6664 57.724C19.4517 57.724 19.1882 57.8021 18.8661 57.9583C18.5343 58.1144 18.3001 58.1925 18.1439 58.1925C17.9976 58.1925 17.8707 58.1437 17.7829 58.0558C17.695 57.9778 17.6462 57.8607 17.6462 57.7143C17.6462 57.4605 17.8317 57.2556 18.2123 57.0995C18.5831 56.9531 19.1003 56.875 19.7444 56.875C20.4276 56.875 20.9058 57.0019 21.1985 57.2654C21.4913 57.5289 21.6377 57.968 21.6377 58.5926V60.359ZM20.4861 59.4416C20.33 59.4026 20.1836 59.3831 20.047 59.3636C19.9103 59.344 19.7932 59.3343 19.6761 59.3343C19.3248 59.3343 19.0515 59.3928 18.8564 59.5099C18.6514 59.627 18.5538 59.7929 18.5538 59.9979C18.5538 60.1833 18.6221 60.3199 18.749 60.4175C18.8759 60.5151 19.0515 60.5639 19.2955 60.5639C19.5102 60.5639 19.7152 60.5346 19.9103 60.4663C20.1055 60.4078 20.3007 60.3102 20.4861 60.1736V59.4416Z" fill="white"/>
<path d="M26.1602 60.3576H27.1849C27.4094 60.3576 27.5655 60.3967 27.6534 60.4747C27.7412 60.5528 27.79 60.6894 27.79 60.8748C27.79 61.0603 27.7412 61.1969 27.6534 61.275C27.5558 61.3628 27.3996 61.4018 27.1849 61.4018H23.9644C23.7497 61.4018 23.5936 61.3628 23.496 61.275C23.4082 61.1969 23.3594 61.0603 23.3594 60.8748C23.3594 60.6894 23.4082 60.5528 23.496 60.4747C23.5838 60.3967 23.74 60.3576 23.9644 60.3576H24.9891V58.0447H24.4524C24.2377 58.0447 24.0815 58.0057 23.9937 57.9179C23.9059 57.8398 23.8571 57.7032 23.8571 57.5177C23.8571 57.3323 23.8961 57.1957 23.9937 57.1176C24.0815 57.0395 24.2279 57.0005 24.4524 57.0005H25.887C25.9748 57.0005 26.0431 57.02 26.0919 57.0493C26.1407 57.0883 26.1602 57.1371 26.1602 57.2054V60.3576ZM25.4771 54.8438C25.7113 54.8438 25.8577 54.8925 25.9358 54.9804C26.0138 55.0682 26.0529 55.2829 26.0529 55.6147C26.0529 55.9368 26.0138 56.1417 25.9455 56.2198C25.8772 56.2978 25.7211 56.3369 25.4673 56.3369C25.2136 56.3369 25.0575 56.2978 24.9891 56.2295C24.9111 56.1515 24.8818 56.0051 24.8818 55.7904C24.8818 55.3805 24.9208 55.1268 24.9891 55.0097C25.0672 54.9023 25.2234 54.8438 25.4771 54.8438Z" fill="white"/>
<path d="M31.9998 60.2895H33.0245C33.2392 60.2895 33.3954 60.3285 33.4832 60.4066C33.571 60.4846 33.6198 60.6213 33.6198 60.8067C33.6198 60.9921 33.571 61.1287 33.4832 61.2068C33.3954 61.2946 33.2392 61.3337 33.0245 61.3337H29.7943C29.5796 61.3337 29.4234 61.2946 29.3356 61.2068C29.2478 61.1287 29.199 60.9921 29.199 60.8067C29.199 60.6213 29.2478 60.4846 29.3356 60.4066C29.4234 60.3285 29.5698 60.2895 29.7943 60.2895H30.819V56.1516H30.292C30.0773 56.1516 29.9211 56.1126 29.8236 56.0248C29.7357 55.9467 29.6869 55.8101 29.6869 55.6246C29.6869 55.4392 29.7357 55.3026 29.8236 55.2245C29.9211 55.1367 30.0773 55.0977 30.292 55.0977H31.7168C31.8046 55.0977 31.873 55.1172 31.9217 55.1465C31.9705 55.1855 31.9998 55.2343 31.9998 55.3026V60.2895Z" fill="white"/>
<path d="M36.3464 57.9192L37.2052 59.9491L38.1031 57.9192H38.025C37.8591 57.9192 37.7225 57.8704 37.6346 57.7826C37.5468 57.6948 37.498 57.5679 37.498 57.3922C37.498 57.2068 37.5468 57.0702 37.6346 56.9921C37.7225 56.914 37.8786 56.875 38.1031 56.875H39.2254C39.4498 56.875 39.606 56.914 39.6938 56.9921C39.7816 57.0799 39.8304 57.2068 39.8304 57.3922C39.8304 57.5679 39.7816 57.6948 39.6938 57.7826C39.606 57.8704 39.4791 57.9192 39.3034 57.9192H39.2254L37.2638 62.1254H37.4785C37.6932 62.1254 37.8493 62.1644 37.9469 62.2522C38.0347 62.3303 38.0835 62.4669 38.0835 62.6523C38.0835 62.8378 38.0347 62.9744 37.9469 63.0525C37.8493 63.1403 37.6932 63.1793 37.4785 63.1793H35.39C35.1753 63.1793 35.0192 63.1403 34.9216 63.0525C34.8338 62.9744 34.785 62.8378 34.785 62.6523C34.785 62.4669 34.8338 62.3303 34.9216 62.2522C35.0192 62.1644 35.1753 62.1254 35.39 62.1254H36.1317L36.5807 61.169L35.1363 57.9192H35.0582C34.8826 57.9192 34.7557 57.8704 34.6679 57.7826C34.5703 57.6948 34.5312 57.5679 34.5312 57.3922C34.5312 57.2068 34.58 57.0702 34.6679 56.9921C34.7557 56.914 34.9119 56.875 35.1363 56.875H36.3464C36.5611 56.875 36.7173 56.914 36.8149 56.9921C36.9027 57.0799 36.9515 57.2068 36.9515 57.3922C36.9515 57.5679 36.9027 57.6948 36.8149 57.7826C36.727 57.8704 36.5904 57.9192 36.4245 57.9192H36.3464Z" fill="white"/>
<path d="M48.104 59.0408V60.4949H48.8164C49.3239 60.4949 49.6752 60.4364 49.8802 60.329C50.0949 60.2217 50.1925 60.0265 50.1925 59.7728C50.1925 59.5093 50.0949 59.3238 49.8997 59.2067C49.7045 59.0994 49.3532 59.0408 48.8652 59.0408H48.104ZM50.534 58.5138C50.8756 58.6407 51.1293 58.8164 51.2952 59.0311C51.4611 59.2555 51.5392 59.5385 51.5392 59.8801C51.5392 60.1729 51.4709 60.4364 51.3245 60.6706C51.1879 60.9048 50.9927 61.1 50.7292 61.2561C50.5731 61.344 50.4072 61.4123 50.212 61.4513C50.0266 61.4903 49.7631 61.5099 49.4117 61.5099H46.9232C46.7182 61.5099 46.5621 61.4708 46.4743 61.383C46.3864 61.3049 46.3376 61.1683 46.3376 60.9829C46.3376 60.817 46.3864 60.6803 46.4645 60.5925C46.5523 60.5144 46.6792 60.4656 46.8451 60.4656H46.9232V56.9134H46.8451C46.6792 56.9134 46.5523 56.8646 46.4645 56.7767C46.3864 56.6889 46.3376 56.562 46.3376 56.3864C46.3376 56.2009 46.3864 56.0643 46.4743 55.9862C46.5719 55.8984 46.7182 55.8594 46.9232 55.8594H49.119C49.7923 55.8594 50.2998 55.9862 50.6414 56.2497C50.9927 56.5132 51.1684 56.8938 51.1684 57.3915C51.1684 57.6453 51.1098 57.86 51.0025 58.0454C50.9049 58.2406 50.739 58.3967 50.534 58.5138ZM48.104 56.8841V58.0844H48.7481C49.1385 58.0844 49.4117 58.0356 49.5679 57.9478C49.7338 57.8502 49.8119 57.6941 49.8119 57.4794C49.8119 57.2744 49.7436 57.1183 49.5972 57.0305C49.4508 56.9329 49.2166 56.8841 48.8945 56.8841H48.104Z" fill="white"/>
<path d="M55.4862 60.3576H56.5109C56.7353 60.3576 56.8915 60.3967 56.9793 60.4747C57.0671 60.5528 57.1159 60.6894 57.1159 60.8748C57.1159 61.0603 57.0671 61.1969 56.9793 61.275C56.8817 61.3628 56.7256 61.4018 56.5109 61.4018H53.2904C53.0757 61.4018 52.9195 61.3628 52.8219 61.275C52.7341 61.1969 52.6853 61.0603 52.6853 60.8748C52.6853 60.6894 52.7341 60.5528 52.8219 60.4747C52.9098 60.3967 53.0659 60.3576 53.2904 60.3576H54.3151V58.0447H53.7783C53.5636 58.0447 53.4075 58.0057 53.3196 57.9179C53.2318 57.8398 53.183 57.7032 53.183 57.5177C53.183 57.3323 53.2221 57.1957 53.3196 57.1176C53.4075 57.0395 53.5539 57.0005 53.7783 57.0005H55.2129C55.3007 57.0005 55.369 57.02 55.4178 57.0493C55.4666 57.0883 55.4862 57.1371 55.4862 57.2054V60.3576ZM54.803 54.8438C55.0372 54.8438 55.1836 54.8925 55.2617 54.9804C55.3398 55.0682 55.3788 55.2829 55.3788 55.6147C55.3788 55.9368 55.3398 56.1417 55.2715 56.2198C55.2031 56.2978 55.047 56.3369 54.7933 56.3369C54.5395 56.3369 54.3834 56.2978 54.3151 56.2295C54.237 56.1515 54.2077 56.0051 54.2077 55.7904C54.2077 55.3805 54.2468 55.1268 54.3151 55.0097C54.3931 54.9023 54.5493 54.8438 54.803 54.8438Z" fill="white"/>
<path d="M60.3596 57.3133H61.8137C62.0381 57.3133 62.1845 57.3523 62.2821 57.4304C62.3699 57.5182 62.4187 57.6451 62.4187 57.8305C62.4187 58.016 62.3699 58.1526 62.2821 58.2307C62.1845 58.3185 62.0284 58.3575 61.8137 58.3575H60.3596V59.5774C60.3596 59.919 60.4084 60.1532 60.5157 60.28C60.6231 60.4069 60.8085 60.4752 61.072 60.4752C61.316 60.4752 61.6087 60.4069 61.9503 60.2605C62.2821 60.1141 62.5066 60.0458 62.6237 60.0458C62.7505 60.0458 62.8677 60.0946 62.9555 60.202C63.0531 60.2996 63.1019 60.4264 63.1019 60.5728C63.1019 60.8168 62.8774 61.0413 62.4383 61.2462C61.9893 61.4414 61.4916 61.5487 60.9256 61.5487C60.6036 61.5487 60.3108 61.4999 60.0668 61.4121C59.8131 61.3243 59.6179 61.1974 59.4813 61.0315C59.3739 60.9046 59.2959 60.7485 59.2568 60.5728C59.208 60.3972 59.1885 60.0946 59.1885 59.6847V58.3575H58.7396C58.5249 58.3575 58.3687 58.3185 58.2809 58.2307C58.1931 58.1526 58.1443 58.016 58.1443 57.8305C58.1443 57.6451 58.1931 57.5085 58.2809 57.4304C58.3687 57.3523 58.5249 57.3133 58.7396 57.3133H59.1885V56.2008C59.1885 55.9763 59.2373 55.8299 59.3251 55.7421C59.413 55.6445 59.5691 55.6055 59.774 55.6055C59.9887 55.6055 60.1351 55.6445 60.223 55.7421C60.3108 55.8299 60.3596 55.9763 60.3596 56.2008V57.3133Z" fill="white"/>
<path d="M65.2823 61.3544C65.1945 61.4227 65.1164 61.4715 65.0286 61.5008C64.9408 61.5301 64.8529 61.5496 64.7554 61.5496C64.6187 61.5496 64.5211 61.5105 64.4723 61.4422C64.4138 61.3642 64.3845 61.2275 64.3845 61.0324V60.398C64.3845 60.1931 64.4235 60.0369 64.4919 59.9491C64.5602 59.8613 64.6773 59.8222 64.8529 59.8222C65.0384 59.8222 65.1945 59.9101 65.3116 60.0955C65.3799 60.1931 65.4385 60.2614 65.4873 60.3102C65.6434 60.4566 65.8191 60.5542 66.0338 60.6225C66.2387 60.7005 66.4729 60.7298 66.7364 60.7298C66.9609 60.7298 67.1463 60.6908 67.2829 60.603C67.4196 60.5054 67.4879 60.398 67.4879 60.2516C67.4879 59.9979 67.117 59.8125 66.3851 59.7149C66.229 59.6954 66.1021 59.6758 66.0045 59.6661C65.4482 59.588 65.0384 59.4416 64.7749 59.2172C64.5016 58.9927 64.365 58.6902 64.365 58.3096C64.365 57.8607 64.5309 57.5191 64.8529 57.2751C65.175 57.0311 65.6434 56.9043 66.2387 56.9043C66.4437 56.9043 66.6584 56.9238 66.8731 56.9531C67.0975 56.9921 67.3122 57.0409 67.5464 57.1092C67.6147 57.0311 67.6831 56.9726 67.7611 56.9336C67.8294 56.8945 67.9173 56.875 68.0051 56.875C68.1417 56.875 68.2393 56.914 68.3076 57.0019C68.376 57.0799 68.4052 57.197 68.4052 57.363V57.9485C68.4052 58.0851 68.376 58.1925 68.2979 58.2705C68.2296 58.3389 68.132 58.3779 68.0051 58.3779C67.8782 58.3779 67.6538 58.2608 67.3415 58.0363C67.0194 57.8119 66.7072 57.6948 66.3851 57.6948C66.1411 57.6948 65.946 57.7338 65.8093 57.8216C65.6727 57.8997 65.6044 58.007 65.6044 58.1534C65.6044 58.3779 65.8874 58.5243 66.4632 58.6023C66.6291 58.6219 66.756 58.6414 66.8535 58.6511C67.5757 58.7585 68.0637 58.9146 68.3369 59.1196C68.6004 59.3245 68.737 59.6368 68.737 60.0467C68.737 60.5249 68.5614 60.8957 68.2003 61.1592C67.849 61.4227 67.3513 61.5496 66.6974 61.5496C66.4437 61.5496 66.1997 61.5301 65.9655 61.5008C65.7313 61.4715 65.497 61.4227 65.2823 61.3544Z" fill="white"/>
</svg>
