<svg width="178" height="144" viewBox="0 0 178 144" fill="none" xmlns="http://www.w3.org/2000/svg">
<path d="M25.0655 2.78506C25.0655 3.67121 24.3059 5.44352 23.04 8.35517C21.6475 11.2668 20.5081 13.5455 19.8752 15.1912C17.0901 21.7741 15.0646 27.724 13.9253 33.1675C12.7859 38.611 12.153 44.3077 12.153 50.131C12.153 55.4479 12.6593 60.7648 13.6721 65.8286C14.5582 70.7657 16.0774 75.8294 18.1029 80.8932C19.1156 83.5516 20.6347 86.8431 22.407 90.5143C24.1793 94.1855 25.0655 96.4642 25.0655 97.3503C25.0655 98.2365 24.8123 98.996 24.4325 99.5024C24.0527 100.009 23.5464 100.262 22.9134 100.262C21.6475 100.262 20.2549 99.629 18.6092 98.2365C17.0901 96.8439 15.1912 94.6919 13.1657 91.7802C8.73495 85.4505 5.44352 78.8677 3.29143 71.9051C1.13934 64.9424 0 57.7266 0 50.131C0 43.1684 0.886154 36.4589 2.65846 30.1292C4.55736 23.7996 7.21582 17.7231 10.887 11.7732C13.2923 7.84879 15.4444 4.93714 17.4699 2.91165C19.4954 1.01275 21.2677 0 22.9134 0C23.5464 0 24.0527 0.253192 24.4325 0.759566C24.8123 1.26594 25.0655 1.8989 25.0655 2.78506Z" fill="white"/>
<path d="M151.953 97.3503C151.953 96.4642 152.712 94.6919 154.105 91.9068C155.497 88.9952 156.51 86.8431 157.27 85.0708C160.055 78.4879 162.08 72.4114 163.22 66.9679C164.486 61.5244 164.992 55.9543 164.992 50.131C164.992 44.8141 164.486 39.6237 163.473 34.56C162.46 29.4963 160.941 24.4325 158.916 19.2422C157.776 16.5837 156.384 13.2923 154.611 9.6211C152.839 5.94989 151.953 3.67121 151.953 2.78506C151.953 1.8989 152.206 1.26594 152.586 0.759566C152.966 0.253192 153.599 0 154.232 0C155.624 0 157.017 0.632971 158.536 2.0255C160.055 3.29143 161.954 5.44352 163.979 8.35517C168.41 14.6848 171.701 21.2677 173.854 28.2303C176.006 35.193 177.145 42.5354 177.145 50.131C177.145 57.0936 176.259 63.6765 174.36 70.1327C172.588 76.4624 169.803 82.5389 166.131 88.4888C163.599 92.5398 161.321 95.4514 159.422 97.3503C157.523 99.2492 155.751 100.262 154.232 100.262C153.599 100.262 152.966 100.009 152.586 99.3758C152.206 98.8694 151.953 98.2365 151.953 97.3503Z" fill="white"/>
<path d="M51.7597 67.5824C56.615 67.5824 60.5509 63.6464 60.5509 58.7912C60.5509 53.936 56.615 50 51.7597 50C46.9045 50 42.9685 53.936 42.9685 58.7912C42.9685 63.6464 46.9045 67.5824 51.7597 67.5824Z" fill="white"/>
<path d="M125.584 67.5824C120.728 67.5824 116.792 63.6464 116.792 58.7912C116.792 53.936 120.728 50 125.584 50C130.439 50 134.375 53.936 134.375 58.7912C134.375 63.6464 130.439 67.5824 125.584 67.5824Z" fill="white"/>
<path d="M1.86173 135.266V124.336H1.62151C1.08101 124.336 0.690642 124.186 0.420391 123.916C0.15014 123.646 0 123.255 0 122.715C0 122.144 0.15014 121.724 0.450419 121.484C0.750698 121.213 1.20112 121.093 1.86173 121.093H5.49511C7.53701 121.093 9.0384 121.183 9.96927 121.364C10.9302 121.544 11.7409 121.814 12.4015 122.234C13.5726 122.925 14.4735 123.946 15.104 125.237C15.7346 126.558 16.0649 128.06 16.0649 129.771C16.0649 131.573 15.7046 133.164 14.9839 134.516C14.2633 135.867 13.2423 136.888 11.9211 137.579C11.3205 137.909 10.6299 138.119 9.81913 138.269C9.0384 138.419 7.83729 138.479 6.24581 138.479H1.86173C1.20112 138.479 0.72067 138.359 0.420391 138.119C0.15014 137.849 0 137.428 0 136.858C0 136.347 0.15014 135.927 0.420391 135.657C0.690642 135.417 1.08101 135.266 1.62151 135.266H1.86173ZM5.64525 124.276V135.266H6.48603C8.34776 135.266 9.69902 134.816 10.5698 133.915C11.4707 133.014 11.8911 131.603 11.8911 129.741C11.8911 127.88 11.4406 126.528 10.5698 125.597C9.66899 124.697 8.31773 124.246 6.51606 124.246C6.27584 124.246 6.09567 124.246 5.97556 124.246C5.85544 124.246 5.73533 124.276 5.64525 124.276Z" fill="white"/>
<path d="M32.2023 134.939H32.4425C32.953 134.939 33.3734 135.089 33.6436 135.359C33.9139 135.629 34.064 136.05 34.064 136.56C34.064 137.131 33.9139 137.521 33.6436 137.791C33.3433 138.032 32.8629 138.152 32.2023 138.152H30.821C30.3405 138.152 29.9802 138.062 29.74 137.881C29.4998 137.701 29.2896 137.341 29.1394 136.86C28.3287 137.401 27.4579 137.821 26.557 138.092C25.6562 138.362 24.7253 138.512 23.7944 138.512C22.233 138.512 21.0019 138.122 20.101 137.341C19.2002 136.56 18.7498 135.479 18.7498 134.128C18.7498 132.657 19.3203 131.516 20.4914 130.705C21.6625 129.894 23.284 129.504 25.3859 129.504C25.8664 129.504 26.3468 129.534 26.8873 129.564C27.3978 129.624 27.9984 129.714 28.659 129.804V129.534C28.659 128.663 28.4488 127.972 28.0284 127.522C27.578 127.071 26.9774 126.831 26.1366 126.831C25.476 126.831 24.6653 127.071 23.6743 127.552C22.6534 128.032 21.9327 128.273 21.4523 128.273C21.0019 128.273 20.6115 128.122 20.3412 127.852C20.071 127.612 19.9208 127.252 19.9208 126.801C19.9208 126.02 20.4914 125.39 21.6625 124.909C22.8035 124.459 24.395 124.219 26.3768 124.219C28.4788 124.219 29.9502 124.609 30.851 125.42C31.7518 126.231 32.2023 127.582 32.2023 129.504V134.939ZM28.659 132.116C28.1785 131.996 27.7281 131.936 27.3077 131.876C26.8873 131.816 26.527 131.786 26.1667 131.786C25.0856 131.786 24.2449 131.966 23.6443 132.326C23.0137 132.687 22.7134 133.197 22.7134 133.828C22.7134 134.398 22.9236 134.819 23.314 135.119C23.7044 135.419 24.2449 135.569 24.9956 135.569C25.6562 135.569 26.2868 135.479 26.8873 135.269C27.4879 135.089 28.0884 134.789 28.659 134.368V132.116Z" fill="white"/>
<path d="M46.118 134.935H49.2709C49.9616 134.935 50.442 135.055 50.7123 135.295C50.9825 135.535 51.1327 135.955 51.1327 136.526C51.1327 137.097 50.9825 137.517 50.7123 137.757C50.412 138.027 49.9316 138.148 49.2709 138.148H39.3617C38.7011 138.148 38.2207 138.027 37.9204 137.757C37.6501 137.517 37.5 137.097 37.5 136.526C37.5 135.955 37.6501 135.535 37.9204 135.295C38.1906 135.055 38.6711 134.935 39.3617 134.935H42.5147V127.818H40.8631C40.2025 127.818 39.7221 127.698 39.4518 127.428C39.1816 127.187 39.0314 126.767 39.0314 126.196C39.0314 125.626 39.1515 125.205 39.4518 124.965C39.7221 124.725 40.1725 124.605 40.8631 124.605H45.2772C45.5475 124.605 45.7577 124.665 45.9078 124.755C46.058 124.875 46.118 125.025 46.118 125.236V134.935ZM44.0161 117.969C44.7367 117.969 45.1871 118.119 45.4274 118.389C45.6676 118.659 45.7877 119.32 45.7877 120.341C45.7877 121.332 45.6676 121.962 45.4574 122.203C45.2472 122.443 44.7668 122.563 43.986 122.563C43.2053 122.563 42.7249 122.443 42.5147 122.233C42.2744 121.992 42.1844 121.542 42.1844 120.881C42.1844 119.62 42.3045 118.84 42.5147 118.479C42.7549 118.149 43.2353 117.969 44.0161 117.969Z" fill="white"/>
<path d="M64.0865 134.725H67.2395C67.9001 134.725 68.3805 134.845 68.6508 135.085C68.921 135.325 69.0712 135.746 69.0712 136.316C69.0712 136.887 68.921 137.307 68.6508 137.547C68.3805 137.818 67.9001 137.938 67.2395 137.938H57.3002C56.6396 137.938 56.1591 137.818 55.8889 137.547C55.6186 137.307 55.4685 136.887 55.4685 136.316C55.4685 135.746 55.6186 135.325 55.8889 135.085C56.1591 134.845 56.6096 134.725 57.3002 134.725H60.4531V121.993H58.8316C58.171 121.993 57.6906 121.873 57.3903 121.603C57.12 121.362 56.9699 120.942 56.9699 120.372C56.9699 119.801 57.12 119.381 57.3903 119.14C57.6906 118.87 58.171 118.75 58.8316 118.75H63.2157C63.486 118.75 63.6962 118.81 63.8463 118.9C63.9964 119.02 64.0865 119.17 64.0865 119.381V134.725Z" fill="white"/>
<path d="M77.4602 127.432L80.1027 133.678L82.8652 127.432H82.625C82.1145 127.432 81.6941 127.282 81.4239 127.012C81.1536 126.742 81.0035 126.351 81.0035 125.811C81.0035 125.24 81.1536 124.82 81.4239 124.58C81.6941 124.339 82.1746 124.219 82.8652 124.219H86.3184C87.0091 124.219 87.4895 124.339 87.7598 124.58C88.03 124.85 88.1802 125.24 88.1802 125.811C88.1802 126.351 88.03 126.742 87.7598 127.012C87.4895 127.282 87.0992 127.432 86.5587 127.432H86.3184L80.2828 140.374H80.9434C81.604 140.374 82.0845 140.494 82.3848 140.765C82.655 141.005 82.8052 141.425 82.8052 141.996C82.8052 142.566 82.655 142.987 82.3848 143.227C82.0845 143.497 81.604 143.617 80.9434 143.617H74.5175C73.8568 143.617 73.3764 143.497 73.0761 143.227C72.8059 142.987 72.6557 142.566 72.6557 141.996C72.6557 141.425 72.8059 141.005 73.0761 140.765C73.3764 140.494 73.8568 140.374 74.5175 140.374H76.7996L78.1809 137.432L73.7367 127.432H73.4965C72.956 127.432 72.5656 127.282 72.2954 127.012C71.9951 126.742 71.875 126.351 71.875 125.811C71.875 125.24 72.0251 124.82 72.2954 124.58C72.5656 124.339 73.0461 124.219 73.7367 124.219H77.4602C78.1208 124.219 78.6013 124.339 78.9015 124.58C79.1718 124.85 79.3219 125.24 79.3219 125.811C79.3219 126.351 79.1718 126.742 78.9015 127.012C78.6313 127.282 78.2109 127.432 77.7004 127.432H77.4602Z" fill="white"/>
<path d="M113.638 130.882V135.357H115.83C117.392 135.357 118.473 135.176 119.103 134.846C119.764 134.516 120.064 133.915 120.064 133.134C120.064 132.324 119.764 131.753 119.163 131.393C118.563 131.063 117.482 130.882 115.98 130.882H113.638ZM121.115 129.261C122.166 129.651 122.947 130.192 123.457 130.852C123.968 131.543 124.208 132.414 124.208 133.465C124.208 134.366 123.998 135.176 123.547 135.897C123.127 136.618 122.526 137.218 121.716 137.699C121.235 137.969 120.725 138.179 120.124 138.299C119.554 138.419 118.743 138.479 117.662 138.479H110.005C109.374 138.479 108.894 138.359 108.624 138.089C108.353 137.849 108.203 137.428 108.203 136.858C108.203 136.347 108.353 135.927 108.593 135.657C108.864 135.417 109.254 135.266 109.765 135.266H110.005V124.336H109.765C109.254 124.336 108.864 124.186 108.593 123.916C108.353 123.646 108.203 123.255 108.203 122.715C108.203 122.144 108.353 121.724 108.624 121.484C108.924 121.213 109.374 121.093 110.005 121.093H116.761C118.833 121.093 120.394 121.484 121.445 122.294C122.526 123.105 123.067 124.276 123.067 125.808C123.067 126.588 122.887 127.249 122.556 127.82C122.256 128.42 121.746 128.901 121.115 129.261ZM113.638 124.246V127.94H115.62C116.821 127.94 117.662 127.789 118.142 127.519C118.653 127.219 118.893 126.739 118.893 126.078C118.893 125.447 118.683 124.967 118.232 124.697C117.782 124.396 117.061 124.246 116.07 124.246H113.638Z" fill="white"/>
<path d="M136.352 134.935H139.505C140.196 134.935 140.676 135.055 140.946 135.295C141.217 135.535 141.367 135.955 141.367 136.526C141.367 137.097 141.217 137.517 140.946 137.757C140.646 138.027 140.166 138.148 139.505 138.148H129.596C128.935 138.148 128.455 138.027 128.155 137.757C127.884 137.517 127.734 137.097 127.734 136.526C127.734 135.955 127.884 135.535 128.155 135.295C128.425 135.055 128.905 134.935 129.596 134.935H132.749V127.818H131.097C130.437 127.818 129.956 127.698 129.686 127.428C129.416 127.187 129.266 126.767 129.266 126.196C129.266 125.626 129.386 125.205 129.686 124.965C129.956 124.725 130.407 124.605 131.097 124.605H135.511C135.782 124.605 135.992 124.665 136.142 124.755C136.292 124.875 136.352 125.025 136.352 125.236V134.935ZM134.25 117.969C134.971 117.969 135.421 118.119 135.662 118.389C135.902 118.659 136.022 119.32 136.022 120.341C136.022 121.332 135.902 121.962 135.692 122.203C135.481 122.443 135.001 122.563 134.22 122.563C133.439 122.563 132.959 122.443 132.749 122.233C132.509 121.992 132.418 121.542 132.418 120.881C132.418 119.62 132.539 118.84 132.749 118.479C132.989 118.149 133.469 117.969 134.25 117.969Z" fill="white"/>
<path d="M151.347 125.567H155.822C156.512 125.567 156.963 125.687 157.263 125.928C157.533 126.198 157.683 126.588 157.683 127.159C157.683 127.729 157.533 128.15 157.263 128.39C156.963 128.66 156.482 128.78 155.822 128.78H151.347V132.534C151.347 133.585 151.497 134.305 151.828 134.696C152.158 135.086 152.729 135.296 153.539 135.296C154.29 135.296 155.191 135.086 156.242 134.636C157.263 134.185 157.953 133.975 158.314 133.975C158.704 133.975 159.065 134.125 159.335 134.456C159.635 134.756 159.785 135.146 159.785 135.597C159.785 136.347 159.095 137.038 157.743 137.669C156.362 138.269 154.831 138.599 153.089 138.599C152.098 138.599 151.197 138.449 150.447 138.179C149.666 137.909 149.065 137.518 148.645 137.008C148.315 136.618 148.074 136.137 147.954 135.597C147.804 135.056 147.744 134.125 147.744 132.864V128.78H146.363C145.702 128.78 145.222 128.66 144.951 128.39C144.681 128.15 144.531 127.729 144.531 127.159C144.531 126.588 144.681 126.168 144.951 125.928C145.222 125.687 145.702 125.567 146.363 125.567H147.744V122.144C147.744 121.454 147.894 121.003 148.164 120.733C148.435 120.433 148.915 120.312 149.546 120.312C150.206 120.312 150.657 120.433 150.927 120.733C151.197 121.003 151.347 121.454 151.347 122.144V125.567Z" fill="white"/>
<path d="M166.494 138.002C166.224 138.212 165.984 138.362 165.714 138.452C165.443 138.542 165.173 138.602 164.873 138.602C164.452 138.602 164.152 138.482 164.002 138.272C163.822 138.032 163.732 137.611 163.732 137.011V135.059C163.732 134.428 163.852 133.948 164.062 133.678C164.272 133.407 164.633 133.287 165.173 133.287C165.744 133.287 166.224 133.557 166.584 134.128C166.795 134.428 166.975 134.638 167.125 134.789C167.605 135.239 168.146 135.539 168.806 135.749C169.437 135.99 170.158 136.08 170.968 136.08C171.659 136.08 172.23 135.96 172.65 135.689C173.07 135.389 173.281 135.059 173.281 134.608C173.281 133.828 172.139 133.257 169.887 132.957C169.407 132.897 169.017 132.837 168.716 132.807C167.005 132.567 165.744 132.116 164.933 131.425C164.092 130.735 163.672 129.804 163.672 128.633C163.672 127.252 164.182 126.201 165.173 125.45C166.164 124.699 167.605 124.309 169.437 124.309C170.068 124.309 170.728 124.369 171.389 124.459C172.079 124.579 172.74 124.729 173.461 124.939C173.671 124.699 173.881 124.519 174.121 124.399C174.332 124.279 174.602 124.219 174.872 124.219C175.292 124.219 175.593 124.339 175.803 124.609C176.013 124.849 176.103 125.21 176.103 125.72V127.522C176.103 127.942 176.013 128.273 175.773 128.513C175.563 128.723 175.262 128.843 174.872 128.843C174.482 128.843 173.791 128.483 172.83 127.792C171.839 127.101 170.878 126.741 169.887 126.741C169.137 126.741 168.536 126.861 168.116 127.131C167.695 127.372 167.485 127.702 167.485 128.152C167.485 128.843 168.356 129.293 170.128 129.534C170.638 129.594 171.028 129.654 171.329 129.684C173.551 130.014 175.052 130.495 175.893 131.125C176.704 131.756 177.124 132.717 177.124 133.978C177.124 135.449 176.584 136.59 175.473 137.401C174.392 138.212 172.86 138.602 170.848 138.602C170.068 138.602 169.317 138.542 168.596 138.452C167.876 138.362 167.155 138.212 166.494 138.002Z" fill="white"/>
</svg>
