<svg width="75" height="45" viewBox="0 0 75 45" fill="none" xmlns="http://www.w3.org/2000/svg">
<rect width="75" height="45" rx="22.5" fill="#232E35"/>
<path fill-rule="evenodd" clip-rule="evenodd" d="M35.4487 2.68377C35.3126 2.27543 34.9304 2 34.5 2C34.0696 2 33.6874 2.27543 33.5513 2.68377L30.7792 11H27.5C26.9477 11 26.5 11.4477 26.5 12C26.5 12.5523 26.9477 13 27.5 13H31.5C31.9304 13 32.3126 12.7246 32.4487 12.3162L34.5 6.16228L39.5513 21.3162C39.6874 21.7246 40.0696 22 40.5 22C40.9304 22 41.3126 21.7246 41.4487 21.3162L44.2208 13H47.5C48.0523 13 48.5 12.5523 48.5 12C48.5 11.4477 48.0523 11 47.5 11H43.5C43.0696 11 42.6874 11.2754 42.5513 11.6838L40.5 17.8377L35.4487 2.68377Z" fill="#2CB67D"/>
<path d="M1.848 40C1.428 40 1.218 39.79 1.218 39.37V30.76C1.218 30.34 1.428 30.13 1.848 30.13H7.056C7.38267 30.13 7.546 30.2887 7.546 30.606C7.546 30.9327 7.38267 31.096 7.056 31.096H2.338V34.512H6.762C7.08867 34.512 7.252 34.6707 7.252 34.988C7.252 35.3147 7.08867 35.478 6.762 35.478H2.338V39.034H7.056C7.38267 39.034 7.546 39.1927 7.546 39.51C7.546 39.8367 7.38267 40 7.056 40H1.848ZM11.4827 40.126C11.0627 40.126 10.6381 40.0747 10.2087 39.972C9.78873 39.86 9.39673 39.6827 9.03273 39.44C8.86473 39.3373 8.78073 39.2067 8.78073 39.048C8.79007 38.88 8.8554 38.7493 8.97673 38.656C9.09807 38.5627 9.25207 38.5627 9.43873 38.656C9.80273 38.88 10.1527 39.0387 10.4887 39.132C10.8341 39.216 11.1747 39.258 11.5107 39.258C12.0427 39.258 12.4441 39.16 12.7147 38.964C12.9854 38.768 13.1207 38.502 13.1207 38.166C13.1207 37.9047 13.0321 37.6993 12.8547 37.55C12.6774 37.3913 12.3974 37.27 12.0147 37.186L10.7407 36.906C9.5834 36.654 9.00473 36.0567 9.00473 35.114C9.00473 34.498 9.2474 34.0033 9.73273 33.63C10.2274 33.2567 10.8714 33.07 11.6647 33.07C12.0661 33.07 12.4534 33.126 12.8267 33.238C13.2001 33.3407 13.5361 33.5087 13.8347 33.742C13.9934 33.854 14.0634 33.9893 14.0447 34.148C14.0261 34.3067 13.9514 34.4327 13.8207 34.526C13.6994 34.61 13.5501 34.596 13.3727 34.484C13.0927 34.2973 12.8081 34.162 12.5187 34.078C12.2294 33.9847 11.9447 33.938 11.6647 33.938C11.1421 33.938 10.7454 34.0407 10.4747 34.246C10.2041 34.4513 10.0687 34.722 10.0687 35.058C10.0687 35.5807 10.4141 35.9167 11.1047 36.066L12.3787 36.332C12.9761 36.4627 13.4287 36.6727 13.7367 36.962C14.0447 37.242 14.1987 37.6247 14.1987 38.11C14.1987 38.7353 13.9514 39.23 13.4567 39.594C12.9621 39.9487 12.3041 40.126 11.4827 40.126ZM18.6586 40.126C17.8559 40.126 17.2539 39.916 16.8526 39.496C16.4513 39.0667 16.2506 38.4507 16.2506 37.648V34.078H15.3126C14.9859 34.078 14.8226 33.9287 14.8226 33.63C14.8226 33.3407 14.9859 33.196 15.3126 33.196H16.2506V31.586C16.2506 31.2033 16.4419 31.012 16.8246 31.012C17.1979 31.012 17.3846 31.2033 17.3846 31.586V33.196H19.1486C19.4753 33.196 19.6386 33.3407 19.6386 33.63C19.6386 33.9287 19.4753 34.078 19.1486 34.078H17.3846V37.536C17.3846 38.068 17.4966 38.474 17.7206 38.754C17.9446 39.0247 18.3086 39.16 18.8126 39.16C18.9899 39.16 19.1393 39.1413 19.2606 39.104C19.3819 39.0667 19.4893 39.048 19.5826 39.048C19.6666 39.0387 19.7366 39.0667 19.7926 39.132C19.8486 39.1973 19.8766 39.3093 19.8766 39.468C19.8766 39.58 19.8533 39.6827 19.8066 39.776C19.7693 39.8693 19.6993 39.9347 19.5966 39.972C19.4846 40.0093 19.3353 40.042 19.1486 40.07C18.9713 40.1073 18.8079 40.126 18.6586 40.126ZM23.0351 40.126C22.5685 40.126 22.1485 40.0373 21.7751 39.86C21.4111 39.6733 21.1218 39.4213 20.9071 39.104C20.6925 38.7867 20.5851 38.432 20.5851 38.04C20.5851 37.5453 20.7111 37.1533 20.9631 36.864C21.2245 36.5747 21.6491 36.3693 22.2371 36.248C22.8345 36.1173 23.6465 36.052 24.6731 36.052H25.1211V35.618C25.1211 35.0393 24.9998 34.624 24.7571 34.372C24.5238 34.1107 24.1458 33.98 23.6231 33.98C23.2965 33.98 22.9651 34.022 22.6291 34.106C22.3025 34.19 21.9618 34.3253 21.6071 34.512C21.4485 34.596 21.3131 34.6147 21.2011 34.568C21.0985 34.512 21.0238 34.428 20.9771 34.316C20.9398 34.1947 20.9398 34.0733 20.9771 33.952C21.0238 33.8213 21.1171 33.7233 21.2571 33.658C21.6585 33.4527 22.0598 33.3033 22.4611 33.21C22.8718 33.1167 23.2591 33.07 23.6231 33.07C24.5005 33.07 25.1491 33.2847 25.5691 33.714C25.9985 34.1433 26.2131 34.8107 26.2131 35.716V39.51C26.2131 39.902 26.0405 40.098 25.6951 40.098C25.3311 40.098 25.1491 39.902 25.1491 39.51V38.824C24.9718 39.2253 24.6965 39.5427 24.3231 39.776C23.9591 40.0093 23.5298 40.126 23.0351 40.126ZM23.2171 39.272C23.7771 39.272 24.2345 39.0807 24.5891 38.698C24.9438 38.306 25.1211 37.8113 25.1211 37.214V36.794H24.6871C23.9311 36.794 23.3338 36.8313 22.8951 36.906C22.4658 36.9713 22.1625 37.0927 21.9851 37.27C21.8171 37.438 21.7331 37.6713 21.7331 37.97C21.7331 38.3527 21.8638 38.6653 22.1251 38.908C22.3958 39.1507 22.7598 39.272 23.2171 39.272ZM30.977 40.126C30.3703 40.126 29.8383 39.9813 29.381 39.692C28.933 39.4027 28.583 38.9967 28.331 38.474C28.0883 37.942 27.967 37.3167 27.967 36.598C27.967 35.87 28.0883 35.2447 28.331 34.722C28.583 34.19 28.933 33.784 29.381 33.504C29.8383 33.2147 30.3703 33.07 30.977 33.07C31.509 33.07 31.9756 33.1867 32.377 33.42C32.7876 33.6533 33.091 33.9753 33.287 34.386V30.606C33.287 30.2233 33.4783 30.032 33.861 30.032C34.2343 30.032 34.421 30.2233 34.421 30.606V39.51C34.421 39.902 34.2343 40.098 33.861 40.098C33.4876 40.098 33.301 39.902 33.301 39.51V38.782C33.0956 39.202 32.7876 39.5333 32.377 39.776C31.9756 40.0093 31.509 40.126 30.977 40.126ZM31.215 39.216C31.8496 39.216 32.3583 38.992 32.741 38.544C33.1236 38.0867 33.315 37.438 33.315 36.598C33.315 35.7487 33.1236 35.1 32.741 34.652C32.3583 34.204 31.8496 33.98 31.215 33.98C30.571 33.98 30.0576 34.204 29.675 34.652C29.3016 35.1 29.115 35.7487 29.115 36.598C29.115 37.438 29.3016 38.0867 29.675 38.544C30.0576 38.992 30.571 39.216 31.215 39.216ZM37.1791 40.07C36.8057 40.07 36.6191 39.8647 36.6191 39.454V33.728C36.6191 33.3267 36.8057 33.126 37.1791 33.126C37.5617 33.126 37.7531 33.3267 37.7531 33.728V39.454C37.7531 39.8647 37.5617 40.07 37.1791 40.07ZM37.6411 32.216C37.5571 32.3467 37.4497 32.4073 37.3191 32.398C37.1884 32.3793 37.0811 32.3233 36.9971 32.23C36.9224 32.1273 36.9177 32.0013 36.9831 31.852L38.1591 29.57C38.2431 29.4113 38.3504 29.318 38.4811 29.29C38.6211 29.262 38.7471 29.2807 38.8591 29.346C38.9804 29.4113 39.0644 29.5093 39.1111 29.64C39.1577 29.7613 39.1344 29.892 39.0411 30.032L37.6411 32.216ZM42.239 40.126C41.819 40.126 41.3943 40.0747 40.965 39.972C40.545 39.86 40.153 39.6827 39.789 39.44C39.621 39.3373 39.537 39.2067 39.537 39.048C39.5463 38.88 39.6116 38.7493 39.733 38.656C39.8543 38.5627 40.0083 38.5627 40.195 38.656C40.559 38.88 40.909 39.0387 41.245 39.132C41.5903 39.216 41.931 39.258 42.267 39.258C42.799 39.258 43.2003 39.16 43.471 38.964C43.7416 38.768 43.877 38.502 43.877 38.166C43.877 37.9047 43.7883 37.6993 43.611 37.55C43.4336 37.3913 43.1536 37.27 42.771 37.186L41.497 36.906C40.3396 36.654 39.761 36.0567 39.761 35.114C39.761 34.498 40.0036 34.0033 40.489 33.63C40.9836 33.2567 41.6276 33.07 42.421 33.07C42.8223 33.07 43.2096 33.126 43.583 33.238C43.9563 33.3407 44.2923 33.5087 44.591 33.742C44.7496 33.854 44.8196 33.9893 44.801 34.148C44.7823 34.3067 44.7076 34.4327 44.577 34.526C44.4556 34.61 44.3063 34.596 44.129 34.484C43.849 34.2973 43.5643 34.162 43.275 34.078C42.9856 33.9847 42.701 33.938 42.421 33.938C41.8983 33.938 41.5016 34.0407 41.231 34.246C40.9603 34.4513 40.825 34.722 40.825 35.058C40.825 35.5807 41.1703 35.9167 41.861 36.066L43.135 36.332C43.7323 36.4627 44.185 36.6727 44.493 36.962C44.801 37.242 44.955 37.6247 44.955 38.11C44.955 38.7353 44.7076 39.23 44.213 39.594C43.7183 39.9487 43.0603 40.126 42.239 40.126ZM49.4149 40.126C48.6122 40.126 48.0102 39.916 47.6089 39.496C47.2075 39.0667 47.0069 38.4507 47.0069 37.648V34.078H46.0689C45.7422 34.078 45.5789 33.9287 45.5789 33.63C45.5789 33.3407 45.7422 33.196 46.0689 33.196H47.0069V31.586C47.0069 31.2033 47.1982 31.012 47.5809 31.012C47.9542 31.012 48.1409 31.2033 48.1409 31.586V33.196H49.9049C50.2315 33.196 50.3949 33.3407 50.3949 33.63C50.3949 33.9287 50.2315 34.078 49.9049 34.078H48.1409V37.536C48.1409 38.068 48.2529 38.474 48.4769 38.754C48.7009 39.0247 49.0649 39.16 49.5689 39.16C49.7462 39.16 49.8955 39.1413 50.0169 39.104C50.1382 39.0667 50.2455 39.048 50.3389 39.048C50.4229 39.0387 50.4929 39.0667 50.5489 39.132C50.6049 39.1973 50.6329 39.3093 50.6329 39.468C50.6329 39.58 50.6095 39.6827 50.5629 39.776C50.5255 39.8693 50.4555 39.9347 50.3529 39.972C50.2409 40.0093 50.0915 40.042 49.9049 40.07C49.7275 40.1073 49.5642 40.126 49.4149 40.126ZM52.2914 31.558C51.7968 31.558 51.5494 31.3247 51.5494 30.858C51.5494 30.4007 51.7968 30.172 52.2914 30.172C52.7861 30.172 53.0334 30.4007 53.0334 30.858C53.0334 31.3247 52.7861 31.558 52.2914 31.558ZM52.2914 40.07C51.9181 40.07 51.7314 39.8647 51.7314 39.454V33.728C51.7314 33.3267 51.9181 33.126 52.2914 33.126C52.6741 33.126 52.8654 33.3267 52.8654 33.728V39.454C52.8654 39.8647 52.6741 40.07 52.2914 40.07ZM57.9393 40.126C57.258 40.126 56.67 39.9813 56.1753 39.692C55.6807 39.3933 55.298 38.978 55.0273 38.446C54.766 37.9047 54.6353 37.2747 54.6353 36.556C54.6353 35.4733 54.9293 34.624 55.5173 34.008C56.1053 33.3827 56.9127 33.07 57.9393 33.07C58.2753 33.07 58.6253 33.126 58.9893 33.238C59.3533 33.3407 59.6847 33.5133 59.9833 33.756C60.142 33.868 60.2073 34.008 60.1793 34.176C60.1607 34.344 60.0813 34.47 59.9413 34.554C59.8107 34.638 59.6567 34.6193 59.4793 34.498C59.2273 34.3113 58.9753 34.1807 58.7233 34.106C58.4807 34.0313 58.2427 33.994 58.0093 33.994C57.3 33.994 56.754 34.218 56.3713 34.666C55.9887 35.1047 55.7973 35.7393 55.7973 36.57C55.7973 37.382 55.9887 38.026 56.3713 38.502C56.754 38.9687 57.3 39.202 58.0093 39.202C58.2427 39.202 58.4807 39.1647 58.7233 39.09C58.9753 39.0153 59.2273 38.8847 59.4793 38.698C59.6567 38.5767 59.8107 38.5627 59.9413 38.656C60.072 38.74 60.142 38.866 60.1513 39.034C60.17 39.202 60.1047 39.3373 59.9553 39.44C59.6567 39.6827 59.33 39.86 58.9753 39.972C58.6207 40.0747 58.2753 40.126 57.9393 40.126ZM63.6931 40.126C63.2264 40.126 62.8064 40.0373 62.4331 39.86C62.0691 39.6733 61.7798 39.4213 61.5651 39.104C61.3504 38.7867 61.2431 38.432 61.2431 38.04C61.2431 37.5453 61.3691 37.1533 61.6211 36.864C61.8824 36.5747 62.3071 36.3693 62.8951 36.248C63.4924 36.1173 64.3044 36.052 65.3311 36.052H65.7791V35.618C65.7791 35.0393 65.6578 34.624 65.4151 34.372C65.1818 34.1107 64.8038 33.98 64.2811 33.98C63.9544 33.98 63.6231 34.022 63.2871 34.106C62.9604 34.19 62.6198 34.3253 62.2651 34.512C62.1064 34.596 61.9711 34.6147 61.8591 34.568C61.7564 34.512 61.6818 34.428 61.6351 34.316C61.5978 34.1947 61.5978 34.0733 61.6351 33.952C61.6818 33.8213 61.7751 33.7233 61.9151 33.658C62.3164 33.4527 62.7178 33.3033 63.1191 33.21C63.5298 33.1167 63.9171 33.07 64.2811 33.07C65.1584 33.07 65.8071 33.2847 66.2271 33.714C66.6564 34.1433 66.8711 34.8107 66.8711 35.716V39.51C66.8711 39.902 66.6984 40.098 66.3531 40.098C65.9891 40.098 65.8071 39.902 65.8071 39.51V38.824C65.6298 39.2253 65.3544 39.5427 64.9811 39.776C64.6171 40.0093 64.1878 40.126 63.6931 40.126ZM63.8751 39.272C64.4351 39.272 64.8924 39.0807 65.2471 38.698C65.6018 38.306 65.7791 37.8113 65.7791 37.214V36.794H65.3451C64.5891 36.794 63.9918 36.8313 63.5531 36.906C63.1238 36.9713 62.8204 37.0927 62.6431 37.27C62.4751 37.438 62.3911 37.6713 62.3911 37.97C62.3911 38.3527 62.5218 38.6653 62.7831 38.908C63.0538 39.1507 63.4178 39.272 63.8751 39.272ZM71.3409 40.126C70.9209 40.126 70.4963 40.0747 70.0669 39.972C69.6469 39.86 69.2549 39.6827 68.8909 39.44C68.7229 39.3373 68.6389 39.2067 68.6389 39.048C68.6483 38.88 68.7136 38.7493 68.8349 38.656C68.9563 38.5627 69.1103 38.5627 69.2969 38.656C69.6609 38.88 70.0109 39.0387 70.3469 39.132C70.6923 39.216 71.0329 39.258 71.3689 39.258C71.9009 39.258 72.3023 39.16 72.5729 38.964C72.8436 38.768 72.9789 38.502 72.9789 38.166C72.9789 37.9047 72.8903 37.6993 72.7129 37.55C72.5356 37.3913 72.2556 37.27 71.8729 37.186L70.5989 36.906C69.4416 36.654 68.8629 36.0567 68.8629 35.114C68.8629 34.498 69.1056 34.0033 69.5909 33.63C70.0856 33.2567 70.7296 33.07 71.5229 33.07C71.9243 33.07 72.3116 33.126 72.6849 33.238C73.0583 33.3407 73.3943 33.5087 73.6929 33.742C73.8516 33.854 73.9216 33.9893 73.9029 34.148C73.8843 34.3067 73.8096 34.4327 73.6789 34.526C73.5576 34.61 73.4083 34.596 73.2309 34.484C72.9509 34.2973 72.6663 34.162 72.3769 34.078C72.0876 33.9847 71.8029 33.938 71.5229 33.938C71.0003 33.938 70.6036 34.0407 70.3329 34.246C70.0623 34.4513 69.9269 34.722 69.9269 35.058C69.9269 35.5807 70.2723 35.9167 70.9629 36.066L72.2369 36.332C72.8343 36.4627 73.2869 36.6727 73.5949 36.962C73.9029 37.242 74.0569 37.6247 74.0569 38.11C74.0569 38.7353 73.8096 39.23 73.3149 39.594C72.8203 39.9487 72.1623 40.126 71.3409 40.126Z" fill="#2CB67D"/>
</svg>
