<svg width="39" height="45" viewBox="0 0 39 45" fill="none" xmlns="http://www.w3.org/2000/svg">
<rect width="39" height="45" rx="19.5" fill="#232E35"/>
<path fill-rule="evenodd" clip-rule="evenodd" d="M20.1139 1.21065C19.7528 0.929784 19.2472 0.929784 18.8861 1.21065L9.88606 8.21065C9.64247 8.4001 9.5 8.69141 9.5 9V20C9.5 20.7957 9.81607 21.5587 10.3787 22.1213C10.9413 22.6839 11.7043 23 12.5 23H16.5H22.5H26.5C27.2957 23 28.0587 22.6839 28.6213 22.1213C29.1839 21.5587 29.5 20.7957 29.5 20V9C29.5 8.69141 29.3575 8.4001 29.1139 8.21065L20.1139 1.21065ZM23.5 21H26.5C26.7652 21 27.0196 20.8946 27.2071 20.7071C27.3946 20.5196 27.5 20.2652 27.5 20V9.48908L19.5 3.26686L11.5 9.48908V20C11.5 20.2652 11.6054 20.5196 11.7929 20.7071C11.9804 20.8946 12.2348 21 12.5 21H15.5V12C15.5 11.4477 15.9477 11 16.5 11H22.5C23.0523 11 23.5 11.4477 23.5 12V21ZM17.5 21V13H21.5V21H17.5Z" fill="#FFFFFE"/>
<path d="M1.792 40.098C1.40933 40.098 1.218 39.8973 1.218 39.496V30.634C1.218 30.2327 1.40933 30.032 1.792 30.032C2.17467 30.032 2.366 30.2327 2.366 30.634V34.498H8.288V30.634C8.288 30.2327 8.47933 30.032 8.862 30.032C9.24467 30.032 9.436 30.2327 9.436 30.634V39.496C9.436 39.8973 9.24467 40.098 8.862 40.098C8.47933 40.098 8.288 39.8973 8.288 39.496V35.492H2.366V39.496C2.366 39.8973 2.17467 40.098 1.792 40.098ZM14.6124 40.126C13.9497 40.126 13.3757 39.9813 12.8904 39.692C12.4051 39.4027 12.0271 38.9967 11.7564 38.474C11.4951 37.942 11.3644 37.3167 11.3644 36.598C11.3644 35.8793 11.4951 35.2587 11.7564 34.736C12.0271 34.204 12.4051 33.7933 12.8904 33.504C13.3757 33.2147 13.9497 33.07 14.6124 33.07C15.2657 33.07 15.8351 33.2147 16.3204 33.504C16.8151 33.7933 17.1931 34.204 17.4544 34.736C17.7251 35.2587 17.8604 35.8793 17.8604 36.598C17.8604 37.3167 17.7251 37.942 17.4544 38.474C17.1931 38.9967 16.8151 39.4027 16.3204 39.692C15.8351 39.9813 15.2657 40.126 14.6124 40.126ZM14.6124 39.216C15.2471 39.216 15.7557 38.992 16.1384 38.544C16.5211 38.0867 16.7124 37.438 16.7124 36.598C16.7124 35.7487 16.5211 35.1 16.1384 34.652C15.7557 34.204 15.2471 33.98 14.6124 33.98C13.9684 33.98 13.4551 34.204 13.0724 34.652C12.6991 35.1 12.5124 35.7487 12.5124 36.598C12.5124 37.438 12.6991 38.0867 13.0724 38.544C13.4551 38.992 13.9684 39.216 14.6124 39.216ZM20.2217 40.098C19.8484 40.098 19.6617 39.902 19.6617 39.51V33.672C19.6617 33.2893 19.8437 33.098 20.2077 33.098C20.581 33.098 20.7677 33.2893 20.7677 33.672V34.344C20.973 33.9333 21.2577 33.6207 21.6217 33.406C21.9857 33.182 22.4104 33.07 22.8957 33.07C23.9597 33.07 24.641 33.532 24.9397 34.456C25.145 34.0267 25.4484 33.6907 25.8497 33.448C26.251 33.196 26.713 33.07 27.2357 33.07C28.7477 33.07 29.5037 33.966 29.5037 35.758V39.51C29.5037 39.902 29.3124 40.098 28.9297 40.098C28.5564 40.098 28.3697 39.902 28.3697 39.51V35.814C28.3697 35.1887 28.2577 34.7313 28.0337 34.442C27.819 34.1433 27.4597 33.994 26.9557 33.994C26.405 33.994 25.9664 34.19 25.6397 34.582C25.313 34.974 25.1497 35.4967 25.1497 36.15V39.51C25.1497 39.902 24.9584 40.098 24.5757 40.098C24.2024 40.098 24.0157 39.902 24.0157 39.51V35.814C24.0157 35.1887 23.9037 34.7313 23.6797 34.442C23.465 34.1433 23.1057 33.994 22.6017 33.994C22.0417 33.994 21.5984 34.19 21.2717 34.582C20.9544 34.974 20.7957 35.4967 20.7957 36.15V39.51C20.7957 39.902 20.6044 40.098 20.2217 40.098ZM34.7599 40.126C33.6866 40.126 32.8373 39.8133 32.2119 39.188C31.5866 38.5533 31.2739 37.6947 31.2739 36.612C31.2739 35.912 31.4139 35.296 31.6939 34.764C31.9739 34.2227 32.3566 33.8073 32.8419 33.518C33.3366 33.2193 33.9059 33.07 34.5499 33.07C35.4739 33.07 36.1973 33.3687 36.7199 33.966C37.2426 34.554 37.5039 35.366 37.5039 36.402C37.5039 36.6913 37.3406 36.836 37.0139 36.836H32.3799C32.4173 37.6107 32.6413 38.2033 33.0519 38.614C33.4626 39.0153 34.0319 39.216 34.7599 39.216C35.0679 39.216 35.3806 39.1787 35.6979 39.104C36.0153 39.02 36.3233 38.8753 36.6219 38.67C36.8366 38.53 37.0139 38.502 37.1539 38.586C37.3033 38.67 37.3779 38.8007 37.3779 38.978C37.3873 39.146 37.2939 39.2953 37.0979 39.426C36.7899 39.65 36.4213 39.8227 35.9919 39.944C35.5719 40.0653 35.1613 40.126 34.7599 40.126ZM34.5779 33.91C33.9339 33.91 33.4253 34.1107 33.0519 34.512C32.6786 34.9133 32.4593 35.4407 32.3939 36.094H36.5239C36.4959 35.4033 36.3139 34.8667 35.9779 34.484C35.6513 34.1013 35.1846 33.91 34.5779 33.91Z" fill="#FFFFFE"/>
</svg>
