<svg width="34" height="45" viewBox="0 0 34 45" fill="none" xmlns="http://www.w3.org/2000/svg">
<rect width="34" height="45" rx="17" fill="#232E35"/>
<path fill-rule="evenodd" clip-rule="evenodd" d="M14 7C14 5.34315 15.3431 4 17 4C18.6569 4 20 5.34315 20 7C20 8.65685 18.6569 10 17 10C15.3431 10 14 8.65685 14 7ZM17 2C14.2386 2 12 4.23858 12 7C12 9.76142 14.2386 12 17 12C19.7614 12 22 9.76142 22 7C22 4.23858 19.7614 2 17 2ZM13 14C11.6739 14 10.4021 14.5268 9.46447 15.4645C8.52678 16.4021 8 17.6739 8 19V21C8 21.5523 8.44772 22 9 22C9.55228 22 10 21.5523 10 21V19C10 18.2043 10.3161 17.4413 10.8787 16.8787C11.4413 16.3161 12.2044 16 13 16H21C21.7956 16 22.5587 16.3161 23.1213 16.8787C23.6839 17.4413 24 18.2044 24 19V21C24 21.5523 24.4477 22 25 22C25.5523 22 26 21.5523 26 21V19C26 17.6739 25.4732 16.4021 24.5355 15.4645C23.5979 14.5268 22.3261 14 21 14H13Z" fill="#FFFFFE"/>
<path d="M1.792 40.098C1.40933 40.098 1.218 39.8973 1.218 39.496V30.718C1.218 30.326 1.414 30.13 1.806 30.13H5.124C6.188 30.13 7 30.3867 7.56 30.9C8.12933 31.4133 8.414 32.146 8.414 33.098C8.414 34.0407 8.12933 34.7733 7.56 35.296C7 35.8093 6.188 36.066 5.124 36.066H2.366V39.496C2.366 39.8973 2.17467 40.098 1.792 40.098ZM2.366 35.1H4.984C6.51467 35.1 7.28 34.4327 7.28 33.098C7.28 31.754 6.51467 31.082 4.984 31.082H2.366V35.1ZM12.7449 40.126C11.6716 40.126 10.8223 39.8133 10.1969 39.188C9.57159 38.5533 9.25892 37.6947 9.25892 36.612C9.25892 35.912 9.39892 35.296 9.67892 34.764C9.95892 34.2227 10.3416 33.8073 10.8269 33.518C11.3216 33.2193 11.8909 33.07 12.5349 33.07C13.4589 33.07 14.1823 33.3687 14.7049 33.966C15.2276 34.554 15.4889 35.366 15.4889 36.402C15.4889 36.6913 15.3256 36.836 14.9989 36.836H10.3649C10.4023 37.6107 10.6263 38.2033 11.0369 38.614C11.4476 39.0153 12.0169 39.216 12.7449 39.216C13.0529 39.216 13.3656 39.1787 13.6829 39.104C14.0003 39.02 14.3083 38.8753 14.6069 38.67C14.8216 38.53 14.9989 38.502 15.1389 38.586C15.2883 38.67 15.3629 38.8007 15.3629 38.978C15.3723 39.146 15.2789 39.2953 15.0829 39.426C14.7749 39.65 14.4063 39.8227 13.9769 39.944C13.5569 40.0653 13.1463 40.126 12.7449 40.126ZM12.5629 33.91C11.9189 33.91 11.4103 34.1107 11.0369 34.512C10.6636 34.9133 10.4443 35.4407 10.3789 36.094H14.5089C14.4809 35.4033 14.2989 34.8667 13.9629 34.484C13.6363 34.1013 13.1696 33.91 12.5629 33.91ZM17.7741 40.098C17.3914 40.098 17.2001 39.902 17.2001 39.51V33.672C17.2001 33.2893 17.3821 33.098 17.7461 33.098C18.1194 33.098 18.3061 33.2893 18.3061 33.672V34.414C18.4928 33.9847 18.7821 33.658 19.1741 33.434C19.5661 33.2007 20.0328 33.0747 20.5741 33.056C20.8728 33.028 21.0314 33.1773 21.0501 33.504C21.0781 33.8307 20.9101 34.0127 20.5461 34.05L20.3221 34.078C19.6781 34.134 19.1881 34.3393 18.8521 34.694C18.5161 35.0393 18.3481 35.5153 18.3481 36.122V39.51C18.3481 39.902 18.1568 40.098 17.7741 40.098ZM23.5808 40.098C23.2075 40.098 23.0208 39.902 23.0208 39.51V34.078H22.1248C21.7981 34.078 21.6348 33.9287 21.6348 33.63C21.6348 33.3407 21.7981 33.196 22.1248 33.196H23.0208V32.958C23.0208 31.222 23.8608 30.284 25.5408 30.144L25.9608 30.102C26.1381 30.0833 26.2688 30.116 26.3528 30.2C26.4368 30.284 26.4788 30.3867 26.4788 30.508C26.4788 30.62 26.4461 30.7273 26.3808 30.83C26.3248 30.9233 26.2408 30.9747 26.1288 30.984L25.7088 31.012C25.1581 31.0493 24.7615 31.222 24.5188 31.53C24.2761 31.838 24.1548 32.2673 24.1548 32.818V33.196H27.7948C28.1681 33.196 28.3548 33.3967 28.3548 33.798V39.454C28.3548 39.8647 28.1681 40.07 27.7948 40.07C27.4121 40.07 27.2208 39.8647 27.2208 39.454V34.078H24.1548V39.51C24.1548 39.902 23.9635 40.098 23.5808 40.098ZM27.8088 31.558C27.3235 31.558 27.0808 31.3247 27.0808 30.858C27.0808 30.4007 27.3235 30.172 27.8088 30.172C28.2941 30.172 28.5368 30.4007 28.5368 30.858C28.5368 31.3247 28.2941 31.558 27.8088 31.558ZM32.6191 40.126C31.9471 40.126 31.4338 39.9253 31.0791 39.524C30.7245 39.1133 30.5471 38.5207 30.5471 37.746V30.606C30.5471 30.2233 30.7338 30.032 31.1071 30.032C31.4898 30.032 31.6811 30.2233 31.6811 30.606V37.662C31.6811 38.6607 32.0778 39.16 32.8711 39.16C32.9551 39.16 33.0298 39.1553 33.0951 39.146C33.1605 39.1367 33.2258 39.132 33.2911 39.132C33.3938 39.1227 33.4638 39.146 33.5011 39.202C33.5478 39.258 33.5711 39.37 33.5711 39.538C33.5711 39.8553 33.4125 40.0373 33.0951 40.084C33.0205 40.1027 32.9411 40.112 32.8571 40.112C32.7731 40.1213 32.6938 40.126 32.6191 40.126Z" fill="#FFFFFE"/>
</svg>
